
<svg width="500" height="500" viewBox="0 0 500 500" fill="none" xmlns="http://www.w3.org/2000/svg">
<path d="M132.295 420.201H132.294C114.459 420.201 100 405.865 100 388.18V190.145C100 172.46 114.459 158.124 132.295 158.124C150.13 158.124 164.589 172.46 164.589 190.145V388.18C164.589 405.865 150.13 420.201 132.295 420.201Z" fill="#3A78E6"/>
<path d="M210.837 309.565H210.837C193.001 309.565 178.543 295.229 178.543 277.544V144.289C178.543 126.605 193.001 112.269 210.837 112.269H210.837C228.673 112.269 243.132 126.605 243.132 144.289V277.544C243.132 295.229 228.673 309.565 210.837 309.565Z" fill="#FDCF02"/>
<path d="M367.706 342.077H367.705C349.87 342.077 335.411 327.741 335.411 310.056V112.021C335.411 94.3362 349.87 80 367.706 80C385.541 80 400 94.3362 400 112.021V310.056C400 327.741 385.541 342.077 367.706 342.077Z" fill="#00D889"/>
<path d="M289.272 373.254H289.271C271.436 373.254 256.977 358.917 256.977 341.233V237.535C256.977 219.851 271.436 205.514 289.271 205.514H289.272C307.107 205.514 321.566 219.851 321.566 237.535V341.233C321.566 358.917 307.107 373.254 289.272 373.254Z" fill="#FF331B"/>
</svg>
